<?xml version="1.0" encoding="UTF-8" standalone="no"?>
<!-- Created with Inkscape (http://www.inkscape.org/) -->

<svg
   width="250mm"
   height="167mm"
   viewBox="0 0 250 167"
   version="1.1"
   id="svg973"
   inkscape:version="1.1 (c4e8f9e, 2021-05-24)"
   sodipodi:docname="tuttifrutti-logo-v2.svg"
   xmlns:inkscape="http://www.inkscape.org/namespaces/inkscape"
   xmlns:sodipodi="http://sodipodi.sourceforge.net/DTD/sodipodi-0.dtd"
   xmlns="http://www.w3.org/2000/svg"
   xmlns:svg="http://www.w3.org/2000/svg">
  <sodipodi:namedview
     id="namedview975"
     pagecolor="#ffffff"
     bordercolor="#666666"
     borderopacity="1.0"
     inkscape:pageshadow="2"
     inkscape:pageopacity="0.0"
     inkscape:pagecheckerboard="0"
     inkscape:document-units="mm"
     showgrid="false"
     showguides="false"
     inkscape:guide-bbox="true"
     inkscape:zoom="0.33089821"
     inkscape:cx="418.55772"
     inkscape:cy="128.43829"
     inkscape:window-width="2560"
     inkscape:window-height="1359"
     inkscape:window-x="0"
     inkscape:window-y="25"
     inkscape:window-maximized="0"
     inkscape:current-layer="layer1">
    <sodipodi:guide
       position="20.281104,12.262687"
       orientation="1,0"
       id="guide1086" />
    <sodipodi:guide
       position="225.3456,-18.15897"
       orientation="1,0"
       id="guide1088" />
  </sodipodi:namedview>
  <defs
     id="defs970" />
  <g
     inkscape:label="Layer 1"
     inkscape:groupmode="layer"
     id="layer1">
    <g
       aria-label="Technologies"
       id="text1444-3-9-3-0-3-7-0-8-7-91"
       style="font-size:42.2054px;line-height:0;stroke-width:1.05513">
      <path
         d="m 31.377474,120.75891 v 17.53508 h -3.432031 v -17.53508 h -6.7487 v -2.99943 h 16.929431 v 2.99943 z"
         style="font-weight:500;font-size:28.8406px;line-height:1.45;font-family:'Neue Haas Unica Pro';-inkscape-font-specification:'Neue Haas Unica Pro Medium'"
         id="path1191" />
      <path
         d="m 43.744683,136.30399 q 1.384349,0 2.249567,-0.66333 0.894059,-0.66334 1.124783,-1.75928 h 3.37435 q -0.432609,2.07652 -2.220726,3.46087 -1.788117,1.38435 -4.527974,1.38435 -2.191885,0 -3.806959,-0.98058 -1.586233,-1.00942 -2.451451,-2.79754 -0.836377,-1.78812 -0.836377,-4.15304 0,-2.16305 0.836377,-3.89349 0.836378,-1.73043 2.422611,-2.71101 1.615073,-0.98058 3.778118,-0.98058 2.480292,0 4.210728,1.35551 1.759276,1.32666 2.364929,3.63391 0.403768,1.29783 0.403768,3.43203 H 39.908884 q 0.08652,2.36493 1.124783,3.51856 1.067102,1.15362 2.711016,1.15362 z m -0.05768,-10.67102 q -1.528552,0 -2.537973,0.98058 -0.98058,0.98058 -1.182464,2.85522 h 7.412034 q -0.173044,-1.87464 -1.182465,-2.85522 -0.98058,-0.98058 -2.509132,-0.98058 z"
         style="font-weight:500;font-size:28.8406px;line-height:1.45;font-family:'Neue Haas Unica Pro';-inkscape-font-specification:'Neue Haas Unica Pro Medium'"
         id="path1193" />
      <path
         d="m 60.278008,123.21036 q 1.845798,0 3.287828,0.74985 1.44203,0.72102 2.307248,2.01885 0.865218,1.29782 1.009421,2.97058 h -3.432031 q -0.115362,-1.44203 -0.98058,-2.27841 -0.865218,-0.86522 -2.191886,-0.86522 -1.730436,0 -2.711016,1.38435 -0.95174,1.35551 -0.95174,3.77812 0,2.42261 0.95174,3.80696 0.98058,1.35551 2.711016,1.35551 1.326668,0 2.163045,-0.95174 0.865218,-0.95174 0.98058,-2.45145 h 3.460872 q -0.230725,2.68217 -2.018842,4.35493 -1.788117,1.64391 -4.585655,1.64391 -2.134204,0 -3.749278,-0.95174 -1.615073,-0.95174 -2.509132,-2.68218 -0.865218,-1.75927 -0.865218,-4.1242 0,-2.36493 0.865218,-4.09537 0.894059,-1.75927 2.509132,-2.71101 1.615074,-0.95174 3.749278,-0.95174 z"
         style="font-weight:500;font-size:28.8406px;line-height:1.45;font-family:'Neue Haas Unica Pro';-inkscape-font-specification:'Neue Haas Unica Pro Medium'"
         id="path1195" />
      <path
         d="m 73.337844,125.3734 q 0.749855,-1.03826 1.845798,-1.55739 1.095943,-0.51913 2.364929,-0.51913 2.537973,0 3.922322,1.52855 1.413189,1.52855 1.413189,4.49913 v 8.96943 h -3.287828 v -8.68102 q 0,-3.66276 -2.970582,-3.66276 -1.470871,0 -2.42261,1.09595 -0.922899,1.09594 -0.922899,3.11478 v 8.13305 h -3.287829 v -20.53451 h 3.287829 v 7.61392 z"
         style="font-weight:500;font-size:28.8406px;line-height:1.45;font-family:'Neue Haas Unica Pro';-inkscape-font-specification:'Neue Haas Unica Pro Medium'"
         id="path1197" />
      <path
         d="m 94.503687,123.29688 q 2.537973,0 3.922322,1.52855 1.413189,1.52855 1.413189,4.49913 v 8.96943 H 96.55137 v -8.68102 q 0,-3.66276 -2.970582,-3.66276 -1.47087,0 -2.42261,1.09595 -0.922899,1.09594 -0.922899,3.11478 v 8.13305 h -3.287828 v -14.65102 h 3.114784 v 1.90348 h 0.05768 q 0.721015,-1.03827 1.845799,-1.64392 1.124783,-0.60565 2.537972,-0.60565 z"
         style="font-weight:500;font-size:28.8406px;line-height:1.45;font-family:'Neue Haas Unica Pro';-inkscape-font-specification:'Neue Haas Unica Pro Medium'"
         id="path1199" />
      <path
         d="m 110.13214,123.21036 q 2.19189,0 3.80696,0.95174 1.64391,0.95174 2.50913,2.71101 0.89406,1.73044 0.89406,4.09537 0,2.36493 -0.89406,4.1242 -0.86522,1.73044 -2.50913,2.68218 -1.61507,0.95174 -3.80696,0.95174 -2.19189,0 -3.8358,-0.95174 -1.64391,-0.95174 -2.53797,-2.68218 -0.86522,-1.75927 -0.86522,-4.1242 0,-2.36493 0.86522,-4.09537 0.89406,-1.75927 2.53797,-2.71101 1.64391,-0.95174 3.8358,-0.95174 z m 0,2.59565 q -1.75928,0 -2.7687,1.38435 -1.00942,1.38435 -1.00942,3.77812 0,2.39377 1.00942,3.77812 1.00942,1.38435 2.7687,1.38435 1.75928,0 2.7687,-1.38435 1.00942,-1.38435 1.00942,-3.77812 0,-2.39377 -1.00942,-3.77812 -1.00942,-1.38435 -2.7687,-1.38435 z"
         style="font-weight:500;font-size:28.8406px;line-height:1.45;font-family:'Neue Haas Unica Pro';-inkscape-font-specification:'Neue Haas Unica Pro Medium'"
         id="path1201" />
      <path
         d="m 120.51971,138.29399 v -20.53451 h 3.28783 v 20.53451 z"
         style="font-weight:500;font-size:28.8406px;line-height:1.45;font-family:'Neue Haas Unica Pro';-inkscape-font-specification:'Neue Haas Unica Pro Medium'"
         id="path1203" />
      <path
         d="m 134.24108,123.21036 q 2.19189,0 3.80696,0.95174 1.64391,0.95174 2.50913,2.71101 0.89406,1.73044 0.89406,4.09537 0,2.36493 -0.89406,4.1242 -0.86522,1.73044 -2.50913,2.68218 -1.61507,0.95174 -3.80696,0.95174 -2.19189,0 -3.8358,-0.95174 -1.64391,-0.95174 -2.53797,-2.68218 -0.86522,-1.75927 -0.86522,-4.1242 0,-2.36493 0.86522,-4.09537 0.89406,-1.75927 2.53797,-2.71101 1.64391,-0.95174 3.8358,-0.95174 z m 0,2.59565 q -1.75928,0 -2.7687,1.38435 -1.00942,1.38435 -1.00942,3.77812 0,2.39377 1.00942,3.77812 1.00942,1.38435 2.7687,1.38435 1.75928,0 2.7687,-1.38435 1.00942,-1.38435 1.00942,-3.77812 0,-2.39377 -1.00942,-3.77812 -1.00942,-1.38435 -2.7687,-1.38435 z"
         style="font-weight:500;font-size:28.8406px;line-height:1.45;font-family:'Neue Haas Unica Pro';-inkscape-font-specification:'Neue Haas Unica Pro Medium'"
         id="path1205" />
      <path
         d="m 150.04393,123.2392 q 1.3555,0 2.39377,0.60565 1.03826,0.57681 1.87463,1.8458 h 0.0577 v -2.04768 h 3.11478 v 13.72812 q 0,3.23015 -1.75928,4.84522 -1.73043,1.64392 -4.9029,1.64392 -2.9129,0 -4.55681,-1.24015 -1.61508,-1.2113 -1.73044,-3.40319 h 3.28783 q 0.0577,1.0671 0.86522,1.64391 0.80753,0.57682 2.19188,0.57682 1.7016,0 2.53798,-0.98058 0.86521,-0.98058 0.86521,-3.20131 v -1.44203 h -0.0577 q -0.80753,1.18246 -1.8458,1.75928 -1.03826,0.54797 -2.39377,0.54797 -1.84579,0 -3.23014,-0.89406 -1.35551,-0.9229 -2.10537,-2.59565 -0.74985,-1.7016 -0.74985,-3.95117 0,-2.24956 0.74985,-3.92232 0.74986,-1.70159 2.13421,-2.59565 1.41319,-0.9229 3.25899,-0.9229 z m 0.74985,2.73986 q -1.58623,0 -2.53797,1.26898 -0.9229,1.26899 -0.9229,3.43203 0,2.16305 0.9229,3.46087 0.95174,1.26899 2.53797,1.26899 1.67276,0 2.6245,-1.26899 0.98058,-1.29782 0.98058,-3.46087 0,-2.16304 -0.98058,-3.43203 -0.95174,-1.26898 -2.6245,-1.26898 z"
         style="font-weight:500;font-size:28.8406px;line-height:1.45;font-family:'Neue Haas Unica Pro';-inkscape-font-specification:'Neue Haas Unica Pro Medium'"
         id="path1207" />
      <path
         d="m 161.69642,138.29399 v -14.65102 h 3.28783 v 14.65102 z m 0,-17.39088 v -3.14363 h 3.28783 v 3.14363 z"
         style="font-weight:500;font-size:28.8406px;line-height:1.45;font-family:'Neue Haas Unica Pro';-inkscape-font-specification:'Neue Haas Unica Pro Medium'"
         id="path1209" />
      <path
         d="m 175.27358,136.30399 q 1.38435,0 2.24957,-0.66333 0.89406,-0.66334 1.12478,-1.75928 h 3.37435 q -0.43261,2.07652 -2.22072,3.46087 -1.78812,1.38435 -4.52798,1.38435 -2.19188,0 -3.80696,-0.98058 -1.58623,-1.00942 -2.45145,-2.79754 -0.83638,-1.78812 -0.83638,-4.15304 0,-2.16305 0.83638,-3.89349 0.83638,-1.73043 2.42261,-2.71101 1.61508,-0.98058 3.77812,-0.98058 2.48029,0 4.21073,1.35551 1.75927,1.32666 2.36493,3.63391 0.40377,1.29783 0.40377,3.43203 h -10.75755 q 0.0865,2.36493 1.12479,3.51856 1.0671,1.15362 2.71101,1.15362 z m -0.0577,-10.67102 q -1.52855,0 -2.53797,0.98058 -0.98058,0.98058 -1.18247,2.85522 h 7.41204 q -0.17305,-1.87464 -1.18247,-2.85522 -0.98058,-0.98058 -2.50913,-0.98058 z"
         style="font-weight:500;font-size:28.8406px;line-height:1.45;font-family:'Neue Haas Unica Pro';-inkscape-font-specification:'Neue Haas Unica Pro Medium'"
         id="path1211" />
      <path
         d="m 190.62715,123.21036 q 2.82638,0 4.35493,1.29782 1.55739,1.26899 1.58623,3.6916 h -3.17246 q 0,-1.29783 -0.72102,-1.93232 -0.72101,-0.66333 -2.07652,-0.66333 -1.15362,0 -1.78812,0.46145 -0.63449,0.46145 -0.63449,1.26898 0,0.60566 0.31725,0.98058 0.34608,0.34609 0.98058,0.57682 0.63449,0.20188 2.01884,0.54797 1.90348,0.49029 2.94174,0.9229 1.0671,0.40376 1.81696,1.3555 0.77869,0.9229 0.77869,2.53798 0,2.01884 -1.67275,3.25898 -1.67276,1.21131 -4.47029,1.21131 -2.99943,0 -4.67218,-1.32667 -1.64392,-1.35551 -1.67276,-3.92232 h 3.34551 q 0,1.35551 0.7787,2.07652 0.80754,0.72102 2.27841,0.72102 1.24014,0 1.93232,-0.49029 0.72101,-0.49029 0.72101,-1.32667 0,-0.72101 -0.37493,-1.12478 -0.37492,-0.43261 -1.09594,-0.66334 -0.69217,-0.25956 -2.22072,-0.63449 -1.7016,-0.43261 -2.68218,-0.80754 -0.95174,-0.37492 -1.64391,-1.24014 -0.69218,-0.86522 -0.69218,-2.39377 0,-1.29783 0.72102,-2.27841 0.72101,-1.00942 2.01884,-1.55739 1.29783,-0.54797 2.99942,-0.54797 z"
         style="font-weight:500;font-size:28.8406px;line-height:1.45;font-family:'Neue Haas Unica Pro';-inkscape-font-specification:'Neue Haas Unica Pro Medium'"
         id="path1213" />
    </g>
    <g
       aria-label="TUTTI FRUTTI "
       id="text1444-3-9-3-0-3-7-9-3-3-3"
       style="font-size:52.6189px;line-height:0;stroke-width:1.31547"
       transform="matrix(0.94351409,0,0,0.94351409,5.4288948,15.802704)">
      <path
         d="m 64.645284,14.143485 h 13.540118 q 2.18389,-0.07708 3.982387,-0.590935 0.770785,-0.205542 1.36172,-0.205542 2.081118,0 4.033773,3.083138 1.978347,3.083139 1.978347,6.346127 0,2.235276 -1.361719,3.262989 -1.027713,0.770784 -2.466511,0.770784 -1.36172,0 -2.36374,-0.745091 -1.00202,-0.770785 -1.978347,-2.517897 -0.847864,-1.592955 -1.336027,-2.081119 -0.488164,-0.488163 -1.18187,-0.488163 -0.950634,0 -1.36172,0.796477 -0.411085,0.796478 -0.411085,2.620668 v 14.387981 q 0,2.209582 0.462471,3.211603 0.462471,1.00202 1.747112,1.541569 1.387412,0.590935 1.875576,1.130484 0.513856,0.513857 0.513856,1.438798 0,1.849883 -2.517896,2.749132 -2.492204,0.899249 -7.682154,0.899249 -6.37182,0 -9.454959,-1.053406 -2.594975,-0.873556 -2.594975,-2.82621 0,-1.053406 0.924942,-1.644341 0.231235,-0.128464 1.82419,-0.616628 0.976328,-0.282621 1.336027,-1.079098 0.385392,-0.796478 0.616628,-3.057446 0.205542,-2.00404 0.385392,-6.474591 0.17985,-4.496244 0.17985,-7.784926 0,-2.312354 -0.3597,-3.288681 -0.359699,-0.976327 -1.181869,-0.976327 -1.002021,0 -1.952655,1.438798 -1.721419,2.620668 -2.82621,3.468531 -1.310334,1.00202 -2.54359,1.00202 -1.387412,0 -2.286661,-1.027713 -0.899249,-1.053405 -0.899249,-2.672053 0,-1.592955 0.719399,-3.494224 0.719399,-1.926962 1.926962,-3.54561 1.952654,-2.620668 3.853923,-2.620668 0.513857,0 1.18187,0.154157 1.387412,0.282621 2.260968,0.385393 0.899249,0.102771 2.055426,0.102771 z"
         style="line-height:0.95;font-family:'Cooper Black';-inkscape-font-specification:'Cooper Black, ';text-align:end;letter-spacing:1.57857px;text-anchor:end"
         id="path1564-6" />
      <path
         d="m 129.81359,26.989896 v 6.269049 q 0,5.678114 -0.84786,8.041853 -1.82419,4.984408 -8.01616,7.219683 -3.75115,1.387413 -8.47863,1.387413 -8.2474,0 -13.206114,-3.931002 -2.415125,-1.926962 -3.340067,-4.470551 -0.924941,-2.54359 -0.924941,-7.348147 0,-1.875576 0.128464,-6.166278 0.07708,-3.031753 0.07708,-4.00808 0,-2.132504 -0.334006,-2.954675 -0.308314,-0.82217 -1.387413,-1.541569 -1.695726,-1.104791 -1.695726,-2.466511 0,-1.00202 0.847863,-1.772805 0.873556,-0.770784 2.286661,-1.053405 2.826211,-0.565242 6.680129,-0.565242 4.23932,0 7.03984,0.64232 2.74913,0.616628 2.74913,2.800518 0,1.079098 -0.79648,1.721419 -0.17985,0.154157 -1.54157,0.796477 -0.82217,0.3597 -1.13048,1.310334 -0.28262,0.950635 -0.28262,3.134525 0,2.235275 -0.20555,9.660501 -0.12846,4.419165 2.38944,6.731519 2.05542,1.901269 5.29272,1.901269 2.05542,0 3.72546,-0.745092 1.67003,-0.770784 2.54359,-2.081118 0.6937,-1.00202 0.95063,-2.235276 0.25693,-1.233255 0.25693,-3.36576 v -5.65242 q -0.12847,-6.500285 -0.38539,-7.605076 -0.23124,-1.130484 -1.64434,-1.772805 -1.33603,-0.590935 -1.82419,-1.079098 -0.48817,-0.488164 -0.48817,-1.207563 0,-1.541569 1.82419,-2.235275 1.84989,-0.719399 5.90935,-0.719399 3.98239,0 5.75519,0.693706 1.7985,0.693706 1.7985,2.209583 0,0.745091 -0.30831,1.104791 -0.30832,0.359699 -1.61865,1.104791 -1.36172,0.770785 -1.56726,1.670034 -0.17985,0.873556 -0.23124,6.577362 z"
         style="line-height:0.95;font-family:'Cooper Black';-inkscape-font-specification:'Cooper Black, ';text-align:end;letter-spacing:1.57857px;text-anchor:end"
         id="path1566-5" />
      <path
         d="m 147.30041,14.143485 h 13.54011 q 2.18389,-0.07708 3.98239,-0.590935 0.77079,-0.205542 1.36172,-0.205542 2.08112,0 4.03378,3.083138 1.97834,3.083139 1.97834,6.346127 0,2.235276 -1.36172,3.262989 -1.02771,0.770784 -2.46651,0.770784 -1.36172,0 -2.36374,-0.745091 -1.00202,-0.770785 -1.97835,-2.517897 -0.84786,-1.592955 -1.33602,-2.081119 -0.48817,-0.488163 -1.18187,-0.488163 -0.95064,0 -1.36172,0.796477 -0.41109,0.796478 -0.41109,2.620668 v 14.387981 q 0,2.209582 0.46247,3.211603 0.46248,1.00202 1.74712,1.541569 1.38741,0.590935 1.87557,1.130484 0.51386,0.513857 0.51386,1.438798 0,1.849883 -2.5179,2.749132 -2.4922,0.899249 -7.68215,0.899249 -6.37182,0 -9.45496,-1.053406 -2.59498,-0.873556 -2.59498,-2.82621 0,-1.053406 0.92495,-1.644341 0.23123,-0.128464 1.82419,-0.616628 0.97632,-0.282621 1.33602,-1.079098 0.3854,-0.796478 0.61663,-3.057446 0.20554,-2.00404 0.38539,-6.474591 0.17985,-4.496244 0.17985,-7.784926 0,-2.312354 -0.3597,-3.288681 -0.3597,-0.976327 -1.18187,-0.976327 -1.00202,0 -1.95265,1.438798 -1.72142,2.620668 -2.82621,3.468531 -1.31034,1.00202 -2.54359,1.00202 -1.38741,0 -2.28666,-1.027713 -0.89925,-1.053405 -0.89925,-2.672053 0,-1.592955 0.7194,-3.494224 0.7194,-1.926962 1.92696,-3.54561 1.95265,-2.620668 3.85392,-2.620668 0.51386,0 1.18187,0.154157 1.38742,0.282621 2.26097,0.385393 0.89925,0.102771 2.05543,0.102771 z"
         style="line-height:0.95;font-family:'Cooper Black';-inkscape-font-specification:'Cooper Black, ';text-align:end;letter-spacing:1.57857px;text-anchor:end"
         id="path1568-5" />
      <path
         d="m 186.33472,14.143485 h 13.54012 q 2.18389,-0.07708 3.98239,-0.590935 0.77078,-0.205542 1.36172,-0.205542 2.08112,0 4.03377,3.083138 1.97835,3.083139 1.97835,6.346127 0,2.235276 -1.36172,3.262989 -1.02772,0.770784 -2.46651,0.770784 -1.36172,0 -2.36374,-0.745091 -1.00202,-0.770785 -1.97835,-2.517897 -0.84786,-1.592955 -1.33603,-2.081119 -0.48816,-0.488163 -1.18187,-0.488163 -0.95063,0 -1.36172,0.796477 -0.41108,0.796478 -0.41108,2.620668 v 14.387981 q 0,2.209582 0.46247,3.211603 0.46247,1.00202 1.74711,1.541569 1.38741,0.590935 1.87558,1.130484 0.51385,0.513857 0.51385,1.438798 0,1.849883 -2.51789,2.749132 -2.49221,0.899249 -7.68216,0.899249 -6.37182,0 -9.45496,-1.053406 -2.59497,-0.873556 -2.59497,-2.82621 0,-1.053406 0.92494,-1.644341 0.23124,-0.128464 1.82419,-0.616628 0.97633,-0.282621 1.33603,-1.079098 0.38539,-0.796478 0.61663,-3.057446 0.20554,-2.00404 0.38539,-6.474591 0.17985,-4.496244 0.17985,-7.784926 0,-2.312354 -0.3597,-3.288681 -0.3597,-0.976327 -1.18187,-0.976327 -1.00202,0 -1.95266,1.438798 -1.72141,2.620668 -2.82621,3.468531 -1.31033,1.00202 -2.54359,1.00202 -1.38741,0 -2.28666,-1.027713 -0.89925,-1.053405 -0.89925,-2.672053 0,-1.592955 0.7194,-3.494224 0.7194,-1.926962 1.92697,-3.54561 1.95265,-2.620668 3.85392,-2.620668 0.51385,0 1.18187,0.154157 1.38741,0.282621 2.26097,0.385393 0.89925,0.102771 2.05542,0.102771 z"
         style="line-height:0.95;font-family:'Cooper Black';-inkscape-font-specification:'Cooper Black, ';text-align:end;letter-spacing:1.57857px;text-anchor:end"
         id="path1570-8" />
      <path
         d="m 224.83388,13.603936 q 2.92898,0 5.52396,0.513856 3.49422,0.693706 3.49422,2.954675 0,0.745092 -0.3597,1.130484 -0.33401,0.359699 -1.74711,1.079099 -1.18187,0.590934 -1.56726,2.594975 -0.3597,2.00404 -0.3597,7.810618 0,9.814658 0.48816,12.152705 0.17985,0.745091 0.53955,1.156177 0.38539,0.385392 1.31033,0.847863 1.69573,0.770784 1.69573,2.235275 0,2.055426 -3.13452,2.826211 -3.39146,0.82217 -8.29879,0.82217 -8.37586,0 -8.37586,-3.18591 0,-1.156177 1.64435,-2.158197 1.25894,-0.770785 1.49018,-2.106811 0.48816,-2.928982 0.48816,-12.435326 0,-6.577363 -0.66801,-8.427246 -0.3597,-1.053406 -1.72142,-1.901269 -1.05341,-0.693706 -1.4131,-1.156177 -0.3597,-0.462471 -0.3597,-1.18187 0,-1.104791 1.0534,-1.747112 1.0791,-0.668013 3.77685,-1.18187 3.2116,-0.64232 6.50028,-0.64232 z"
         style="line-height:0.95;font-family:'Cooper Black';-inkscape-font-specification:'Cooper Black, ';text-align:end;letter-spacing:1.57857px;text-anchor:end"
         id="path1572-1" />
      <path
         d="m 35.453843,64.132494 q -1.772805,0 -2.18389,0.899249 -0.308314,0.668013 -0.590935,2.620668 -0.256928,1.952654 -0.256928,3.545609 0,0.950635 0.616628,1.310334 0.616627,0.3597 2.312354,0.3597 1.130484,0 1.670033,-0.411085 0.539549,-0.411086 0.745092,-1.387413 0.590935,-2.800517 2.415125,-2.800517 3.134525,0 3.134525,7.502304 0,4.753172 -1.36172,6.988447 -0.82217,1.36172 -2.260968,1.36172 -1.515877,0 -1.747112,-2.029733 -0.128464,-1.310334 -0.334007,-1.849883 -0.17985,-0.53955 -0.719399,-1.027713 -0.847863,-0.796478 -2.466511,-0.796478 -1.156177,0 -1.567262,0.411086 -0.411085,0.411085 -0.3597,1.567262 0,0.205542 -0.02569,2.389432 0,4.444858 0.924942,5.421186 0.308314,0.385392 0.616628,0.513856 0.334007,0.102771 1.695726,0.308314 0.668013,0.102771 1.130484,0.693706 0.462471,0.590935 0.462471,1.36172 0,1.978347 -2.312354,2.543589 -3.340067,0.796478 -9.37788,0.796478 -5.292722,0 -7.296762,-0.616628 Q 17.417485,93.525083 16.852242,92.779991 16.287,92.034899 16.287,91.13565 q 0,-1.130484 0.822171,-1.82419 0.205542,-0.154157 1.413105,-0.64232 1.438798,-0.565243 1.721419,-2.620668 0.462471,-3.160218 0.462471,-14.413674 0,-4.855943 -0.334007,-6.294741 -0.334007,-1.438798 -1.618648,-2.00404 -1.284641,-0.565242 -1.695726,-0.976328 -0.385392,-0.436778 -0.385392,-1.233255 0,-1.130484 1.104791,-1.875576 1.104791,-0.770785 2.723439,-0.770785 1.027713,0 3.00606,0.154157 4.187931,0.334007 10.020201,0.334007 9.326495,0 12.56379,-0.513857 0.436778,-0.05138 0.668014,-0.05138 0.899249,0 1.721419,1.027713 2.260968,2.877596 2.260968,6.37182 0,1.592955 -0.745092,2.543589 -0.745091,0.950634 -1.952654,0.950634 -0.899249,0 -1.36172,-0.359699 -0.462471,-0.3597 -2.363739,-2.517897 -1.156177,-1.336026 -2.800518,-1.747112 -1.618648,-0.411085 -6.063506,-0.539549 z"
         style="line-height:0.95;font-family:'Cooper Black';-inkscape-font-specification:'Cooper Black, ';text-align:end;letter-spacing:1.57857px;text-anchor:end"
         id="path1574-4" />
      <path
         d="m 69.842147,79.162795 q -0.976327,0 -1.258948,0.590935 -0.256928,0.590935 -0.256928,2.749132 0,3.262989 0.411085,5.087179 0.128464,0.513856 0.385392,0.796477 0.256929,0.282622 0.976328,0.693707 1.541569,0.847863 1.541569,2.235275 0,1.695726 -2.158197,2.415126 -2.132504,0.693706 -7.245376,0.693706 -9.506344,0 -9.506344,-3.596995 0,-0.616628 0.282621,-0.976328 0.282621,-0.385392 1.284641,-1.053405 1.130484,-0.745092 1.515876,-1.747112 0.411085,-1.027713 0.565242,-3.519917 0.128464,-1.82419 0.128464,-13.077647 0,-3.571302 -0.359699,-4.855943 -0.3597,-1.284641 -1.541569,-1.875576 -1.130485,-0.539549 -1.515877,-0.976327 -0.385392,-0.462471 -0.385392,-1.18187 0,-0.950635 0.719399,-1.644341 0.745092,-0.719399 2.055426,-1.053405 1.104791,-0.282622 3.031753,-0.282622 0.847863,0 4.239315,0.256929 0.642321,0.05138 2.029733,0.05138 2.312354,0 6.166278,-0.308314 2.440818,-0.179849 3.417145,-0.179849 5.498264,0 9.095259,2.64636 3.237296,2.389433 3.237296,6.628749 0,2.363739 -1.130484,4.316394 -1.130485,1.926961 -3.108832,2.903289 -0.82217,0.411085 -0.82217,0.976327 0,0.745092 1.258948,1.207563 2.697746,0.976327 3.956695,2.954674 1.258948,1.978348 1.798497,6.063506 0.231236,1.695727 0.668014,2.209583 0.436778,0.488164 2.029733,0.950634 0.488163,0.154157 0.82217,0.668014 0.334007,0.488163 0.334007,1.104791 0,0.796478 -0.616628,1.618648 -0.616628,0.796477 -1.592955,1.258948 -2.158197,1.002018 -5.909349,1.002018 -5.010101,0 -7.168298,-2.646358 -0.976327,-1.18187 -1.670033,-2.980368 -0.668013,-1.798497 -1.592955,-5.601035 -0.590935,-2.440818 -1.515877,-3.442838 -0.899248,-1.00202 -2.594975,-1.079099 z m -1.490183,-13.103339 -0.282621,5.986427 q 0,0.07708 0,0.231236 0,0.924941 0.256928,1.233255 0.282621,0.308314 1.104791,0.308314 2.260969,0 3.288681,-1.156177 1.027713,-1.18187 1.027713,-3.751152 0,-4.958715 -3.519916,-4.958715 -1.00202,0 -1.413106,0.462471 -0.411085,0.462471 -0.46247,1.644341 z"
         style="letter-spacing:0.789285px"
         id="path1576-7" />
      <path
         d="m 130.57718,71.686184 v 6.269049 q 0,5.678113 -0.84786,8.041853 -1.82419,4.984408 -8.01616,7.219683 -3.75115,1.387412 -8.47863,1.387412 -8.2474,0 -13.20611,-3.931001 -2.415128,-1.926962 -3.340069,-4.470551 -0.924942,-2.54359 -0.924942,-7.348148 0,-1.875576 0.128464,-6.166277 0.07708,-3.031753 0.07708,-4.00808 0,-2.132505 -0.334007,-2.954675 -0.308314,-0.82217 -1.387412,-1.541569 -1.695727,-1.104792 -1.695727,-2.466511 0,-1.00202 0.847864,-1.772805 0.873556,-0.770785 2.286661,-1.053406 2.82621,-0.565242 6.680128,-0.565242 4.23932,0 7.03984,0.642321 2.74913,0.616628 2.74913,2.800517 0,1.079099 -0.79648,1.72142 -0.17985,0.154156 -1.54157,0.796477 -0.82217,0.3597 -1.13048,1.310334 -0.28262,0.950634 -0.28262,3.134524 0,2.235276 -0.20554,9.660502 -0.12847,4.419165 2.38943,6.731519 2.05542,1.901269 5.29272,1.901269 2.05542,0 3.72546,-0.745092 1.67003,-0.770785 2.54359,-2.081119 0.6937,-1.00202 0.95063,-2.235275 0.25693,-1.233256 0.25693,-3.36576 v -5.652421 q -0.12846,-6.500284 -0.38539,-7.605075 -0.23124,-1.130484 -1.64434,-1.772805 -1.33603,-0.590935 -1.82419,-1.079099 -0.48817,-0.488163 -0.48817,-1.207562 0,-1.54157 1.82419,-2.235276 1.84989,-0.719399 5.90935,-0.719399 3.98239,0 5.7552,0.693706 1.79849,0.693707 1.79849,2.209583 0,0.745092 -0.30831,1.104792 -0.30831,0.359699 -1.61865,1.104791 -1.36172,0.770785 -1.56726,1.670033 -0.17985,0.873556 -0.23124,6.577363 z"
         style="letter-spacing:0.789285px"
         id="path1578-1" />
      <path
         d="m 147.30041,58.839773 h 13.54012 q 2.18389,-0.07708 3.98239,-0.590935 0.77078,-0.205543 1.36172,-0.205543 2.08111,0 4.03377,3.083139 1.97835,3.083139 1.97835,6.346127 0,2.235276 -1.36172,3.262988 -1.02772,0.770785 -2.46651,0.770785 -1.36172,0 -2.36374,-0.745092 -1.00202,-0.770784 -1.97835,-2.517896 -0.84786,-1.592955 -1.33603,-2.081119 -0.48816,-0.488164 -1.18187,-0.488164 -0.95063,0 -1.36172,0.796478 -0.41108,0.796477 -0.41108,2.620668 v 14.38798 q 0,2.209583 0.46247,3.211603 0.46247,1.00202 1.74711,1.54157 1.38741,0.590934 1.87558,1.130484 0.51385,0.513856 0.51385,1.438798 0,1.849883 -2.51789,2.749132 -2.49221,0.899249 -7.68216,0.899249 -6.37182,0 -9.45496,-1.053406 -2.59497,-0.873556 -2.59497,-2.826211 0,-1.053405 0.92494,-1.64434 0.23124,-0.128464 1.82419,-0.616628 0.97633,-0.282621 1.33603,-1.079099 0.38539,-0.796477 0.61662,-3.057445 0.20555,-2.004041 0.3854,-6.474592 0.17985,-4.496244 0.17985,-7.784925 0,-2.312354 -0.3597,-3.288681 -0.3597,-0.976327 -1.18187,-0.976327 -1.00202,0 -1.95266,1.438798 -1.72142,2.620668 -2.82621,3.468531 -1.31033,1.00202 -2.54359,1.00202 -1.38741,0 -2.28666,-1.027713 -0.89925,-1.053406 -0.89925,-2.672054 0,-1.592955 0.7194,-3.494223 0.7194,-1.926962 1.92696,-3.54561 1.95266,-2.620668 3.85393,-2.620668 0.51385,0 1.18187,0.154157 1.38741,0.282621 2.26097,0.385392 0.89924,0.102772 2.05542,0.102772 z"
         style="line-height:0.95;font-family:'Cooper Black';-inkscape-font-specification:'Cooper Black, ';text-align:end;letter-spacing:1.57857px;text-anchor:end"
         id="path1580-3" />
      <path
         d="m 186.33472,58.839773 h 13.54012 q 2.18389,-0.07708 3.98238,-0.590935 0.77079,-0.205543 1.36172,-0.205543 2.08112,0 4.03378,3.083139 1.97834,3.083139 1.97834,6.346127 0,2.235276 -1.36172,3.262988 -1.02771,0.770785 -2.46651,0.770785 -1.36172,0 -2.36374,-0.745092 -1.00202,-0.770784 -1.97834,-2.517896 -0.84787,-1.592955 -1.33603,-2.081119 -0.48816,-0.488164 -1.18187,-0.488164 -0.95064,0 -1.36172,0.796478 -0.41109,0.796477 -0.41109,2.620668 v 14.38798 q 0,2.209583 0.46248,3.211603 0.46247,1.00202 1.74711,1.54157 1.38741,0.590934 1.87557,1.130484 0.51386,0.513856 0.51386,1.438798 0,1.849883 -2.5179,2.749132 -2.4922,0.899249 -7.68215,0.899249 -6.37182,0 -9.45496,-1.053406 -2.59497,-0.873556 -2.59497,-2.826211 0,-1.053405 0.92494,-1.64434 0.23123,-0.128464 1.82419,-0.616628 0.97632,-0.282621 1.33602,-1.079099 0.3854,-0.796477 0.61663,-3.057445 0.20554,-2.004041 0.38539,-6.474592 0.17985,-4.496244 0.17985,-7.784925 0,-2.312354 -0.3597,-3.288681 -0.35969,-0.976327 -1.18187,-0.976327 -1.00202,0 -1.95265,1.438798 -1.72142,2.620668 -2.82621,3.468531 -1.31033,1.00202 -2.54359,1.00202 -1.38741,0 -2.28666,-1.027713 -0.89925,-1.053406 -0.89925,-2.672054 0,-1.592955 0.7194,-3.494223 0.7194,-1.926962 1.92696,-3.54561 1.95266,-2.620668 3.85392,-2.620668 0.51386,0 1.18187,0.154157 1.38742,0.282621 2.26097,0.385392 0.89925,0.102772 2.05543,0.102772 z"
         style="line-height:0.95;font-family:'Cooper Black';-inkscape-font-specification:'Cooper Black, ';text-align:end;letter-spacing:1.57857px;text-anchor:end"
         id="path1582-8" />
      <path
         d="m 224.83388,58.300223 q 2.92898,0 5.52395,0.513857 3.49423,0.693706 3.49423,2.954674 0,0.745092 -0.3597,1.130485 -0.33401,0.359699 -1.74711,1.079098 -1.18187,0.590935 -1.56727,2.594975 -0.3597,2.00404 -0.3597,7.810618 0,9.814658 0.48817,12.152705 0.17985,0.745092 0.53955,1.156177 0.38539,0.385393 1.31033,0.847863 1.69573,0.770785 1.69573,2.235276 0,2.055426 -3.13453,2.82621 -3.39145,0.822171 -8.29878,0.822171 -8.37586,0 -8.37586,-3.18591 0,-1.156177 1.64434,-2.158197 1.25895,-0.770785 1.49019,-2.106812 0.48816,-2.928982 0.48816,-12.435326 0,-6.577362 -0.66801,-8.427246 -0.3597,-1.053405 -1.72142,-1.901268 -1.05341,-0.693707 -1.41311,-1.156177 -0.3597,-0.462471 -0.3597,-1.18187 0,-1.104792 1.05341,-1.747112 1.0791,-0.668014 3.77684,-1.18187 3.2116,-0.642321 6.50029,-0.642321 z"
         style="line-height:0.95;font-family:'Cooper Black';-inkscape-font-specification:'Cooper Black, ';text-align:end;letter-spacing:1.57857px;text-anchor:end"
         id="path1584-4" />
    </g>
  </g>
</svg>
