<?xml version="1.0" encoding="UTF-8" standalone="no"?>
<!-- Created with Inkscape (http://www.inkscape.org/) -->

<svg
   width="54mm"
   height="30.374001mm"
   viewBox="0 0 54 30.374001"
   version="1.1"
   id="svg1167"
   inkscape:version="1.1 (c4e8f9e, 2021-05-24)"
   sodipodi:docname="tf-logo-black-cropped.svg"
   xmlns:inkscape="http://www.inkscape.org/namespaces/inkscape"
   xmlns:sodipodi="http://sodipodi.sourceforge.net/DTD/sodipodi-0.dtd"
   xmlns="http://www.w3.org/2000/svg"
   xmlns:svg="http://www.w3.org/2000/svg">
  <sodipodi:namedview
     id="namedview1169"
     pagecolor="#ffffff"
     bordercolor="#666666"
     borderopacity="1.0"
     inkscape:pageshadow="2"
     inkscape:pageopacity="0.0"
     inkscape:pagecheckerboard="0"
     inkscape:document-units="mm"
     showgrid="false"
     inkscape:zoom="2.254153"
     inkscape:cx="152.82903"
     inkscape:cy="74.307291"
     inkscape:window-width="1312"
     inkscape:window-height="975"
     inkscape:window-x="0"
     inkscape:window-y="25"
     inkscape:window-maximized="0"
     inkscape:current-layer="layer1" />
  <defs
     id="defs1164" />
  <g
     inkscape:label="Layer 1"
     inkscape:groupmode="layer"
     id="layer1">
    <g
       id="g991"
       transform="matrix(0.26306033,0,0,0.26306033,-5.4705763,-7.4698085)"
       style="clip-rule:evenodd;fill-rule:nonzero;stroke-linecap:round;stroke-linejoin:round">
      <path
         d="m 31.3775,120.759 v 17.535 h -3.4321 v -17.535 h -6.7487 v -3 h 16.9295 v 3 z"
         opacity="1"
         fill="#000000"
         id="path844" />
      <path
         d="m 43.7447,136.304 c 0.9229,0 1.6727,-0.221 2.2495,-0.663 0.5961,-0.443 0.971,-1.029 1.1248,-1.76 h 3.3744 c -0.2884,1.385 -1.0287,2.538 -2.2207,3.461 -1.1921,0.923 -2.7014,1.385 -4.528,1.385 -1.4613,0 -2.7303,-0.327 -3.807,-0.981 -1.0575,-0.673 -1.8746,-1.605 -2.4514,-2.798 -0.5576,-1.192 -0.8364,-2.576 -0.8364,-4.153 0,-1.442 0.2788,-2.739 0.8364,-3.893 0.5576,-1.154 1.3651,-2.057 2.4226,-2.711 1.0767,-0.654 2.3361,-0.981 3.7781,-0.981 1.6535,0 3.0571,0.452 4.2107,1.356 1.1729,0.884 1.9612,2.096 2.365,3.634 0.2691,0.865 0.4037,2.009 0.4037,3.432 H 39.9089 c 0.0577,1.576 0.4326,2.749 1.1248,3.518 0.7114,0.769 1.615,1.154 2.711,1.154 z M 43.687,125.633 c -1.019,0 -1.865,0.327 -2.538,0.981 -0.6537,0.653 -1.0478,1.605 -1.1824,2.855 h 7.412 c -0.1154,-1.25 -0.5095,-2.202 -1.1825,-2.855 -0.6537,-0.654 -1.4901,-0.981 -2.5091,-0.981 z"
         opacity="1"
         fill="#000000"
         id="path846" />
      <path
         d="m 60.278,123.21 c 1.2305,0 2.3265,0.25 3.2878,0.75 0.9614,0.481 1.7305,1.154 2.3073,2.019 0.5768,0.865 0.9133,1.855 1.0094,2.971 h -3.432 c -0.0769,-0.962 -0.4038,-1.721 -0.9806,-2.279 -0.5768,-0.577 -1.3074,-0.865 -2.1919,-0.865 -1.1536,0 -2.0573,0.461 -2.711,1.384 -0.6345,0.904 -0.9517,2.163 -0.9517,3.778 0,1.616 0.3172,2.885 0.9517,3.807 0.6537,0.904 1.5574,1.356 2.711,1.356 0.8845,0 1.6055,-0.317 2.1631,-0.952 0.5768,-0.634 0.9036,-1.451 0.9805,-2.451 h 3.4609 c -0.1538,1.788 -0.8268,3.24 -2.0188,4.355 -1.1921,1.096 -2.7207,1.644 -4.5857,1.644 -1.4228,0 -2.6726,-0.318 -3.7493,-0.952 -1.0767,-0.635 -1.9131,-1.529 -2.5091,-2.682 -0.5768,-1.173 -0.8652,-2.548 -0.8652,-4.125 0,-1.576 0.2884,-2.941 0.8652,-4.095 0.596,-1.173 1.4324,-2.076 2.5091,-2.711 1.0767,-0.634 2.3265,-0.952 3.7493,-0.952 z"
         opacity="1"
         fill="#000000"
         id="path848" />
      <path
         d="m 73.3378,125.373 c 0.4999,-0.692 1.1152,-1.211 1.8458,-1.557 0.7307,-0.346 1.519,-0.519 2.365,-0.519 1.692,0 2.9994,0.509 3.9223,1.528 0.9421,1.019 1.4132,2.519 1.4132,4.5 v 8.969 h -3.2878 v -8.681 c 0,-2.442 -0.9902,-3.663 -2.9706,-3.663 -0.9806,0 -1.7881,0.366 -2.4226,1.096 -0.6153,0.731 -0.9229,1.769 -0.9229,3.115 v 8.133 h -3.2879 v -20.535 h 3.2879 v 7.614 z"
         opacity="1"
         fill="#000000"
         id="path850" />
      <path
         d="m 94.5037,123.297 c 1.692,0 2.9994,0.509 3.9223,1.528 0.9421,1.019 1.4132,2.519 1.4132,4.5 v 8.969 h -3.2878 v -8.681 c 0,-2.442 -0.9902,-3.663 -2.9706,-3.663 -0.9806,0 -1.7881,0.366 -2.4226,1.096 -0.6153,0.731 -0.9229,1.769 -0.9229,3.115 v 8.133 h -3.2879 v -14.651 h 3.1148 v 1.903 h 0.0577 c 0.4807,-0.692 1.096,-1.24 1.8458,-1.643 0.7499,-0.404 1.5959,-0.606 2.538,-0.606 z"
         opacity="1"
         fill="#000000"
         id="path852" />
      <path
         d="m 110.132,123.21 c 1.461,0 2.73,0.318 3.807,0.952 1.096,0.635 1.932,1.538 2.509,2.711 0.596,1.154 0.894,2.519 0.894,4.095 0,1.577 -0.298,2.952 -0.894,4.125 -0.577,1.153 -1.413,2.047 -2.509,2.682 -1.077,0.634 -2.346,0.952 -3.807,0.952 -1.461,0 -2.74,-0.318 -3.836,-0.952 -1.096,-0.635 -1.942,-1.529 -2.538,-2.682 -0.576,-1.173 -0.865,-2.548 -0.865,-4.125 0,-1.576 0.289,-2.941 0.865,-4.095 0.596,-1.173 1.442,-2.076 2.538,-2.711 1.096,-0.634 2.375,-0.952 3.836,-0.952 z m 0,2.596 c -1.173,0 -2.096,0.461 -2.769,1.384 -0.673,0.923 -1.009,2.183 -1.009,3.778 0,1.596 0.336,2.856 1.009,3.779 0.673,0.922 1.596,1.384 2.769,1.384 1.173,0 2.096,-0.462 2.769,-1.384 0.673,-0.923 1.009,-2.183 1.009,-3.779 0,-1.595 -0.336,-2.855 -1.009,-3.778 -0.673,-0.923 -1.596,-1.384 -2.769,-1.384 z"
         opacity="1"
         fill="#000000"
         id="path854" />
      <path
         d="m 120.52,138.294 v -20.535 h 3.288 v 20.535 z"
         opacity="1"
         fill="#000000"
         id="path856" />
      <path
         d="m 134.241,123.21 c 1.461,0 2.73,0.318 3.807,0.952 1.096,0.635 1.932,1.538 2.509,2.711 0.596,1.154 0.894,2.519 0.894,4.095 0,1.577 -0.298,2.952 -0.894,4.125 -0.577,1.153 -1.413,2.047 -2.509,2.682 -1.077,0.634 -2.346,0.952 -3.807,0.952 -1.461,0 -2.74,-0.318 -3.836,-0.952 -1.096,-0.635 -1.942,-1.529 -2.538,-2.682 -0.577,-1.173 -0.865,-2.548 -0.865,-4.125 0,-1.576 0.288,-2.941 0.865,-4.095 0.596,-1.173 1.442,-2.076 2.538,-2.711 1.096,-0.634 2.375,-0.952 3.836,-0.952 z m 0,2.596 c -1.173,0 -2.096,0.461 -2.769,1.384 -0.673,0.923 -1.009,2.183 -1.009,3.778 0,1.596 0.336,2.856 1.009,3.779 0.673,0.922 1.596,1.384 2.769,1.384 1.173,0 2.096,-0.462 2.769,-1.384 0.673,-0.923 1.009,-2.183 1.009,-3.779 0,-1.595 -0.336,-2.855 -1.009,-3.778 -0.673,-0.923 -1.596,-1.384 -2.769,-1.384 z"
         opacity="1"
         fill="#000000"
         id="path858" />
      <path
         d="m 150.044,123.239 c 0.904,0 1.702,0.202 2.394,0.606 0.692,0.384 1.317,1 1.874,1.846 h 0.058 v -2.048 h 3.115 v 13.728 c 0,2.154 -0.587,3.769 -1.759,4.845 -1.154,1.096 -2.788,1.644 -4.903,1.644 -1.942,0 -3.461,-0.413 -4.557,-1.24 -1.077,-0.807 -1.654,-1.942 -1.731,-3.403 h 3.288 c 0.039,0.711 0.327,1.259 0.865,1.644 0.539,0.384 1.269,0.577 2.192,0.577 1.135,0 1.981,-0.327 2.538,-0.981 0.577,-0.654 0.866,-1.721 0.866,-3.201 v -1.442 h -0.058 c -0.539,0.788 -1.154,1.374 -1.846,1.759 -0.692,0.365 -1.49,0.548 -2.394,0.548 -1.23,0 -2.307,-0.298 -3.23,-0.894 -0.904,-0.615 -1.605,-1.481 -2.105,-2.596 -0.5,-1.134 -0.75,-2.451 -0.75,-3.951 0,-1.5 0.25,-2.807 0.75,-3.922 0.5,-1.135 1.211,-2 2.134,-2.596 0.942,-0.615 2.028,-0.923 3.259,-0.923 z m 0.75,2.74 c -1.058,0 -1.904,0.423 -2.538,1.269 -0.615,0.846 -0.923,1.99 -0.923,3.432 0,1.442 0.308,2.596 0.923,3.461 0.634,0.846 1.48,1.269 2.538,1.269 1.115,0 1.99,-0.423 2.624,-1.269 0.654,-0.865 0.981,-2.019 0.981,-3.461 0,-1.442 -0.327,-2.586 -0.981,-3.432 -0.634,-0.846 -1.509,-1.269 -2.624,-1.269 z"
         opacity="1"
         fill="#000000"
         id="path860" />
      <path
         d="m 161.696,138.294 v -14.651 h 3.288 v 14.651 z m 0,-17.391 v -3.144 h 3.288 v 3.144 z"
         opacity="1"
         fill="#000000"
         id="path862" />
      <path
         d="m 175.274,136.304 c 0.922,0 1.672,-0.221 2.249,-0.663 0.596,-0.443 0.971,-1.029 1.125,-1.76 h 3.374 c -0.288,1.385 -1.028,2.538 -2.22,3.461 -1.193,0.923 -2.702,1.385 -4.528,1.385 -1.462,0 -2.731,-0.327 -3.807,-0.981 -1.058,-0.673 -1.875,-1.605 -2.452,-2.798 -0.557,-1.192 -0.836,-2.576 -0.836,-4.153 0,-1.442 0.279,-2.739 0.836,-3.893 0.558,-1.154 1.365,-2.057 2.423,-2.711 1.076,-0.654 2.336,-0.981 3.778,-0.981 1.653,0 3.057,0.452 4.211,1.356 1.172,0.884 1.961,2.096 2.365,3.634 0.269,0.865 0.403,2.009 0.403,3.432 h -10.757 c 0.057,1.576 0.432,2.749 1.125,3.518 0.711,0.769 1.615,1.154 2.711,1.154 z m -0.058,-10.671 c -1.019,0 -1.865,0.327 -2.538,0.981 -0.654,0.653 -1.048,1.605 -1.183,2.855 h 7.412 c -0.115,-1.25 -0.509,-2.202 -1.182,-2.855 -0.654,-0.654 -1.49,-0.981 -2.509,-0.981 z"
         opacity="1"
         fill="#000000"
         id="path864" />
      <path
         d="m 190.627,123.21 c 1.884,0 3.336,0.433 4.355,1.298 1.038,0.846 1.567,2.077 1.586,3.692 h -3.172 c 0,-0.865 -0.24,-1.51 -0.721,-1.933 -0.481,-0.442 -1.173,-0.663 -2.077,-0.663 -0.769,0 -1.365,0.154 -1.788,0.462 -0.423,0.307 -0.634,0.73 -0.634,1.269 0,0.403 0.105,0.73 0.317,0.98 0.231,0.231 0.558,0.423 0.981,0.577 0.423,0.135 1.095,0.317 2.018,0.548 1.269,0.327 2.25,0.634 2.942,0.923 0.712,0.269 1.317,0.721 1.817,1.355 0.519,0.616 0.779,1.462 0.779,2.538 0,1.346 -0.558,2.433 -1.673,3.259 -1.115,0.808 -2.605,1.212 -4.47,1.212 -2,0 -3.557,-0.443 -4.672,-1.327 -1.096,-0.904 -1.654,-2.211 -1.673,-3.922 h 3.345 c 0,0.903 0.26,1.595 0.779,2.076 0.538,0.481 1.298,0.721 2.278,0.721 0.827,0 1.471,-0.163 1.933,-0.49 0.48,-0.327 0.721,-0.769 0.721,-1.327 0,-0.48 -0.125,-0.855 -0.375,-1.125 -0.25,-0.288 -0.615,-0.509 -1.096,-0.663 -0.462,-0.173 -1.202,-0.384 -2.221,-0.634 -1.134,-0.289 -2.028,-0.558 -2.682,-0.808 -0.635,-0.25 -1.183,-0.663 -1.644,-1.24 -0.461,-0.577 -0.692,-1.375 -0.692,-2.394 0,-0.865 0.24,-1.625 0.721,-2.278 0.481,-0.673 1.154,-1.192 2.019,-1.558 0.865,-0.365 1.865,-0.548 2.999,-0.548 z"
         opacity="1"
         fill="#000000"
         id="path866" />
    </g>
    <g
       opacity="1"
       id="g892"
       transform="matrix(0.26306033,0,0,0.26306033,-5.4705763,-7.4698085)"
       style="clip-rule:evenodd;fill-rule:nonzero;stroke-linecap:round;stroke-linejoin:round">
      <path
         d="m 66.4226,29.1473 h 12.7753 c 1.3737,-0.0485 2.6262,-0.2344 3.7575,-0.5576 0.4848,-0.1293 0.9131,-0.1939 1.2848,-0.1939 1.309,0 2.5777,0.9697 3.8059,2.909 1.2444,1.9393 1.8666,3.9352 1.8666,5.9876 0,1.406 -0.4283,2.4323 -1.2848,3.0787 -0.6465,0.4848 -1.4222,0.7273 -2.3272,0.7273 -0.8565,0 -1.5999,-0.2344 -2.2302,-0.703 -0.6303,-0.4849 -1.2525,-1.2768 -1.8666,-2.3757 -0.5333,-1.002 -0.9535,-1.6565 -1.2606,-1.9636 -0.307,-0.307 -0.6787,-0.4606 -1.1151,-0.4606 -0.598,0 -1.0262,0.2505 -1.2848,0.7515 -0.2586,0.501 -0.3879,1.3252 -0.3879,2.4727 v 13.5752 c 0,1.3899 0.1455,2.3999 0.4364,3.0302 0.2909,0.6303 0.8404,1.1151 1.6484,1.4545 0.8727,0.3717 1.4626,0.7273 1.7696,1.0666 0.3233,0.3233 0.4849,0.7758 0.4849,1.3576 0,1.1636 -0.7919,2.0282 -2.3757,2.5938 -1.5676,0.5656 -3.9837,0.8485 -7.2482,0.8485 -4.0079,0 -6.9816,-0.3313 -8.9209,-0.9939 -1.6323,-0.5495 -2.4484,-1.4384 -2.4484,-2.6666 0,-0.6626 0.2909,-1.1798 0.8727,-1.5515 0.1454,-0.0808 0.7192,-0.2747 1.7211,-0.5818 0.6142,-0.1777 1.0344,-0.5171 1.2606,-1.0181 0.2424,-0.501 0.4364,-1.4626 0.5818,-2.8848 0.1293,-1.2605 0.2505,-3.2968 0.3636,-6.1088 0.1132,-2.8282 0.1697,-5.2766 0.1697,-7.3452 0,-1.4545 -0.1131,-2.4888 -0.3394,-3.1029 -0.2262,-0.6142 -0.5979,-0.9212 -1.1151,-0.9212 -0.6303,0 -1.2444,0.4525 -1.8423,1.3575 -1.0828,1.6484 -1.9717,2.7393 -2.6666,3.2726 -0.8242,0.6303 -1.6242,0.9454 -2.3999,0.9454 -0.8727,0 -1.5919,-0.3232 -2.1575,-0.9696 -0.5656,-0.6626 -0.8485,-1.503 -0.8485,-2.5211 0,-1.002 0.2263,-2.101 0.6788,-3.2969 0.4525,-1.2121 1.0585,-2.3272 1.8181,-3.3453 1.2283,-1.6484 2.4403,-2.4727 3.6362,-2.4727 0.3233,0 0.695,0.0485 1.1152,0.1455 0.8727,0.1778 1.5837,0.299 2.1332,0.3636 0.5656,0.0647 1.2121,0.097 1.9393,0.097 z"
         opacity="1"
         fill="#000000"
         id="path870" />
      <path
         d="m 127.91,41.2681 v 5.9149 c 0,3.5716 -0.267,6.1008 -0.8,7.5876 -1.148,3.1352 -3.669,5.4059 -7.563,6.8119 -2.36,0.8727 -5.027,1.309 -8,1.309 -5.188,0 -9.341,-1.2363 -12.4603,-3.7089 -1.5192,-1.2121 -2.5697,-2.6181 -3.1514,-4.2181 -0.5818,-1.5999 -0.8727,-3.9109 -0.8727,-6.9331 0,-1.1797 0.0404,-3.119 0.1212,-5.8179 0.0484,-1.907 0.0727,-3.1676 0.0727,-3.7817 0,-1.3414 -0.1051,-2.2706 -0.3151,-2.7878 -0.194,-0.5171 -0.6303,-1.002 -1.3091,-1.4545 -1.0666,-0.6949 -1.5999,-1.4706 -1.5999,-2.3272 0,-0.6302 0.2666,-1.1878 0.7999,-1.6726 0.5495,-0.4849 1.2687,-0.8162 2.1575,-0.9939 1.7777,-0.3556 3.8787,-0.5333 6.3032,-0.5333 2.666,0 4.88,0.202 6.642,0.606 1.729,0.3879 2.594,1.2686 2.594,2.6423 0,0.6788 -0.251,1.2202 -0.752,1.6242 -0.113,0.097 -0.598,0.3475 -1.454,0.7515 -0.517,0.2262 -0.873,0.6383 -1.067,1.2363 -0.178,0.598 -0.267,1.5838 -0.267,2.9575 0,1.406 -0.064,4.4443 -0.194,9.1148 -0.08,2.7797 0.671,4.8968 2.255,6.3513 1.293,1.1959 2.957,1.7939 4.994,1.7939 1.293,0 2.464,-0.2344 3.515,-0.7031 1.05,-0.4848 1.85,-1.1393 2.4,-1.9635 0.436,-0.6303 0.735,-1.3333 0.897,-2.109 0.161,-0.7758 0.242,-1.8343 0.242,-3.1757 v -5.3331 c -0.081,-4.0888 -0.202,-6.4806 -0.364,-7.1755 -0.145,-0.7111 -0.662,-1.2686 -1.551,-1.6727 -0.84,-0.3717 -1.414,-0.7111 -1.721,-1.0181 -0.307,-0.3071 -0.461,-0.6869 -0.461,-1.1394 0,-0.9696 0.574,-1.6726 1.721,-2.109 1.164,-0.4525 3.022,-0.6787 5.576,-0.6787 2.505,0 4.315,0.2181 5.43,0.6545 1.131,0.4363 1.697,1.1312 1.697,2.0847 0,0.4687 -0.097,0.8162 -0.291,1.0424 -0.194,0.2263 -0.703,0.5737 -1.527,1.0424 -0.857,0.4848 -1.35,1.0101 -1.479,1.5757 -0.113,0.5495 -0.186,2.6181 -0.218,6.2059 z"
         opacity="1"
         fill="#000000"
         id="path872" />
      <path
         d="m 144.409,29.1473 h 12.775 c 1.374,-0.0485 2.626,-0.2344 3.758,-0.5576 0.484,-0.1293 0.913,-0.1939 1.284,-0.1939 1.309,0 2.578,0.9697 3.806,2.909 1.245,1.9393 1.867,3.9352 1.867,5.9876 0,1.406 -0.428,2.4323 -1.285,3.0787 -0.646,0.4848 -1.422,0.7273 -2.327,0.7273 -0.857,0 -1.6,-0.2344 -2.23,-0.703 -0.631,-0.4849 -1.253,-1.2768 -1.867,-2.3757 -0.533,-1.002 -0.953,-1.6565 -1.26,-1.9636 -0.307,-0.307 -0.679,-0.4606 -1.116,-0.4606 -0.597,0 -1.026,0.2505 -1.284,0.7515 -0.259,0.501 -0.388,1.3252 -0.388,2.4727 v 13.5752 c 0,1.3899 0.145,2.3999 0.436,3.0302 0.291,0.6303 0.841,1.1151 1.649,1.4545 0.872,0.3717 1.462,0.7273 1.769,1.0666 0.323,0.3233 0.485,0.7758 0.485,1.3576 0,1.1636 -0.792,2.0282 -2.376,2.5938 -1.567,0.5656 -3.983,0.8485 -7.248,0.8485 -4.008,0 -6.981,-0.3313 -8.921,-0.9939 -1.632,-0.5495 -2.448,-1.4384 -2.448,-2.6666 0,-0.6626 0.291,-1.1798 0.873,-1.5515 0.145,-0.0808 0.719,-0.2747 1.721,-0.5818 0.614,-0.1777 1.034,-0.5171 1.26,-1.0181 0.243,-0.501 0.437,-1.4626 0.582,-2.8848 0.129,-1.2605 0.251,-3.2968 0.364,-6.1088 0.113,-2.8282 0.169,-5.2766 0.169,-7.3452 0,-1.4545 -0.113,-2.4888 -0.339,-3.1029 -0.226,-0.6142 -0.598,-0.9212 -1.115,-0.9212 -0.63,0 -1.244,0.4525 -1.842,1.3575 -1.083,1.6484 -1.972,2.7393 -2.667,3.2726 -0.824,0.6303 -1.624,0.9454 -2.4,0.9454 -0.873,0 -1.592,-0.3232 -2.157,-0.9696 -0.566,-0.6626 -0.849,-1.503 -0.849,-2.5211 0,-1.002 0.226,-2.101 0.679,-3.2969 0.452,-1.2121 1.058,-2.3272 1.818,-3.3453 1.228,-1.6484 2.44,-2.4727 3.636,-2.4727 0.323,0 0.695,0.0485 1.115,0.1455 0.873,0.1778 1.584,0.299 2.134,0.3636 0.565,0.0647 1.212,0.097 1.939,0.097 z"
         opacity="1"
         fill="#000000"
         id="path874" />
      <path
         d="m 181.238,29.1473 h 12.776 c 1.373,-0.0485 2.626,-0.2344 3.757,-0.5576 0.485,-0.1293 0.913,-0.1939 1.285,-0.1939 1.309,0 2.578,0.9697 3.806,2.909 1.244,1.9393 1.866,3.9352 1.866,5.9876 0,1.406 -0.428,2.4323 -1.284,3.0787 -0.647,0.4848 -1.423,0.7273 -2.328,0.7273 -0.856,0 -1.6,-0.2344 -2.23,-0.703 -0.63,-0.4849 -1.252,-1.2768 -1.866,-2.3757 -0.534,-1.002 -0.954,-1.6565 -1.261,-1.9636 -0.307,-0.307 -0.679,-0.4606 -1.115,-0.4606 -0.598,0 -1.026,0.2505 -1.285,0.7515 -0.258,0.501 -0.388,1.3252 -0.388,2.4727 v 13.5752 c 0,1.3899 0.146,2.3999 0.437,3.0302 0.29,0.6303 0.84,1.1151 1.648,1.4545 0.873,0.3717 1.463,0.7273 1.77,1.0666 0.323,0.3233 0.484,0.7758 0.484,1.3576 0,1.1636 -0.791,2.0282 -2.375,2.5938 -1.568,0.5656 -3.984,0.8485 -7.248,0.8485 -4.008,0 -6.982,-0.3313 -8.921,-0.9939 -1.633,-0.5495 -2.449,-1.4384 -2.449,-2.6666 0,-0.6626 0.291,-1.1798 0.873,-1.5515 0.145,-0.0808 0.719,-0.2747 1.721,-0.5818 0.614,-0.1777 1.034,-0.5171 1.261,-1.0181 0.242,-0.501 0.436,-1.4626 0.582,-2.8848 0.129,-1.2605 0.25,-3.2968 0.363,-6.1088 0.113,-2.8282 0.17,-5.2766 0.17,-7.3452 0,-1.4545 -0.113,-2.4888 -0.34,-3.1029 -0.226,-0.6142 -0.598,-0.9212 -1.115,-0.9212 -0.63,0 -1.244,0.4525 -1.842,1.3575 -1.083,1.6484 -1.972,2.7393 -2.667,3.2726 -0.824,0.6303 -1.624,0.9454 -2.4,0.9454 -0.872,0 -1.591,-0.3232 -2.157,-0.9696 -0.566,-0.6626 -0.848,-1.503 -0.848,-2.5211 0,-1.002 0.226,-2.101 0.678,-3.2969 0.453,-1.2121 1.059,-2.3272 1.818,-3.3453 1.229,-1.6484 2.441,-2.4727 3.637,-2.4727 0.323,0 0.695,0.0485 1.115,0.1455 0.872,0.1778 1.584,0.299 2.133,0.3636 0.566,0.0647 1.212,0.097 1.939,0.097 z"
         opacity="1"
         fill="#000000"
         id="path876" />
      <path
         d="m 217.563,28.6382 c 1.842,0 3.579,0.1616 5.212,0.4848 2.198,0.4364 3.297,1.3656 3.297,2.7878 0,0.4687 -0.114,0.8242 -0.34,1.0666 -0.21,0.2263 -0.759,0.5657 -1.648,1.0182 -0.744,0.3717 -1.237,1.1878 -1.479,2.4484 -0.226,1.2605 -0.339,3.717 -0.339,7.3694 0,6.1735 0.153,9.9956 0.46,11.4663 0.113,0.4686 0.283,0.8323 0.509,1.0908 0.243,0.2424 0.655,0.5091 1.237,0.8 1.066,0.4848 1.6,1.1878 1.6,2.109 0,1.2929 -0.986,2.1818 -2.958,2.6666 -2.133,0.5171 -4.743,0.7757 -7.83,0.7757 -5.268,0 -7.903,-1.002 -7.903,-3.0059 0,-0.7273 0.518,-1.406 1.552,-2.0363 0.792,-0.4849 1.26,-1.1475 1.406,-1.9878 0.307,-1.8424 0.46,-5.7534 0.46,-11.7329 0,-4.1373 -0.21,-6.7877 -0.63,-7.9513 -0.226,-0.6626 -0.767,-1.2605 -1.624,-1.7938 -0.663,-0.4364 -1.107,-0.8 -1.333,-1.0909 -0.227,-0.2909 -0.34,-0.6626 -0.34,-1.1151 0,-0.6949 0.332,-1.2444 0.994,-1.6484 0.679,-0.4202 1.867,-0.7919 3.564,-1.1152 2.02,-0.404 4.064,-0.606 6.133,-0.606 z"
         opacity="1"
         fill="#000000"
         id="path878" />
      <path
         d="m 38.8801,76.3126 c -1.1151,0 -1.802,0.2828 -2.0605,0.8485 -0.194,0.4202 -0.3798,1.2444 -0.5576,2.4726 -0.1616,1.2282 -0.2424,2.3434 -0.2424,3.3453 0,0.598 0.1939,1.0101 0.5818,1.2364 0.3879,0.2262 1.1151,0.3393 2.1817,0.3393 0.7111,0 1.2363,-0.1292 1.5757,-0.3878 0.3394,-0.2586 0.5737,-0.695 0.703,-1.3091 0.3717,-1.7615 1.1313,-2.6423 2.2787,-2.6423 1.9717,0 2.9575,2.3595 2.9575,7.0785 0,2.9898 -0.4283,5.1877 -1.2848,6.5937 -0.5171,0.8566 -1.2282,1.2848 -2.1333,1.2848 -0.9535,0 -1.5029,-0.6383 -1.6484,-1.915 -0.0808,-0.8243 -0.1858,-1.4061 -0.3151,-1.7454 -0.1131,-0.3394 -0.3394,-0.6626 -0.6788,-0.9697 -0.5333,-0.501 -1.309,-0.7515 -2.3272,-0.7515 -0.7272,0 -1.2201,0.1293 -1.4787,0.3879 -0.2586,0.2586 -0.3717,0.7515 -0.3394,1.4787 0,0.1293 -0.0081,0.8808 -0.0242,2.2545 0,2.7958 0.2909,4.5008 0.8727,5.1149 0.1939,0.2425 0.3878,0.4041 0.5818,0.4849 0.2101,0.0646 0.7434,0.1616 1.5999,0.2909 0.4202,0.0646 0.7757,0.2823 1.0666,0.6543 0.2909,0.372 0.4364,0.8 0.4364,1.285 0,1.244 -0.7273,2.044 -2.1817,2.4 -2.101,0.501 -5.0504,0.751 -8.8482,0.751 -3.3292,0 -5.6241,-0.194 -6.8846,-0.581 -0.5656,-0.178 -1.0262,-0.501 -1.3818,-0.97 -0.3555,-0.469 -0.5333,-0.986 -0.5333,-1.552 0,-0.711 0.2586,-1.284 0.7757,-1.721 0.1293,-0.0966 0.5738,-0.2987 1.3333,-0.6057 0.905,-0.3556 1.4464,-1.1798 1.6242,-2.4726 0.2909,-1.9879 0.4364,-6.521 0.4364,-13.5996 0,-3.0544 -0.1051,-5.0341 -0.3152,-5.9391 -0.2101,-0.905 -0.7192,-1.5353 -1.5272,-1.8909 -0.8081,-0.3555 -1.3414,-0.6626 -1.5999,-0.9211 -0.2425,-0.2748 -0.3637,-0.6627 -0.3637,-1.1636 0,-0.7111 0.3475,-1.301 1.0424,-1.7697 0.6949,-0.4848 1.5515,-0.7272 2.5696,-0.7272 0.6465,0 1.5919,0.0485 2.8363,0.1454 2.6342,0.2101 5.7856,0.3152 9.4542,0.3152 5.8664,0 9.8178,-0.1616 11.8541,-0.4849 0.2747,-0.0323 0.4848,-0.0484 0.6303,-0.0484 0.5656,0 1.107,0.3232 1.6242,0.9696 1.4221,1.8101 2.1332,3.814 2.1332,6.0119 0,1.002 -0.2343,1.802 -0.703,2.3999 -0.4687,0.598 -1.0828,0.897 -1.8423,0.897 -0.5657,0 -0.9939,-0.1132 -1.2848,-0.3394 -0.2909,-0.2263 -1.0344,-1.0182 -2.2303,-2.3757 -0.7272,-0.8404 -1.608,-1.3898 -2.6423,-1.6484 -1.0181,-0.2586 -2.9251,-0.4283 -5.721,-0.5091 z"
         opacity="1"
         fill="#000000"
         id="path880" />
      <path
         d="m 71.3259,90.4939 c -0.6141,0 -1.01,0.1859 -1.1878,0.5576 -0.1616,0.3717 -0.2424,1.2363 -0.2424,2.5938 0,2.0525 0.1293,3.6524 0.3879,4.7998 0.0808,0.3233 0.202,0.5738 0.3636,0.7515 0.1616,0.1778 0.4687,0.396 0.9212,0.6546 0.9696,0.5328 1.4545,1.2358 1.4545,2.1088 0,1.067 -0.6788,1.826 -2.0363,2.279 -1.3414,0.436 -3.6201,0.654 -6.8361,0.654 -5.9796,0 -8.9694,-1.131 -8.9694,-3.393 0,-0.388 0.0889,-0.695 0.2666,-0.922 0.1778,-0.242 0.5818,-0.573 1.2121,-0.9935 0.7111,-0.4687 1.1879,-1.0181 1.4303,-1.6484 0.2585,-0.6465 0.4363,-1.7535 0.5333,-3.3211 0.0808,-1.1475 0.1212,-5.2604 0.1212,-12.339 0,-2.2463 -0.1131,-3.7736 -0.3394,-4.5816 -0.2262,-0.8081 -0.7111,-1.3979 -1.4545,-1.7696 -0.7111,-0.3394 -1.1878,-0.6465 -1.4302,-0.9212 -0.2425,-0.2909 -0.3637,-0.6626 -0.3637,-1.1151 0,-0.598 0.2263,-1.1151 0.6788,-1.5515 0.4687,-0.4525 1.1151,-0.7838 1.9393,-0.9939 0.695,-0.1778 1.6485,-0.2667 2.8605,-0.2667 0.5333,0 1.8666,0.0808 3.9999,0.2425 0.404,0.0323 1.0424,0.0484 1.9151,0.0484 1.4545,0 3.3938,-0.0969 5.8179,-0.2909 1.5353,-0.1131 2.61,-0.1697 3.2242,-0.1697 3.4584,0 6.3189,0.8323 8.5815,2.4969 2.0363,1.503 3.0544,3.5878 3.0544,6.2543 0,1.4869 -0.3555,2.8444 -1.0666,4.0726 -0.7111,1.2121 -1.6889,2.1252 -2.9333,2.7393 -0.5171,0.2586 -0.7757,0.5657 -0.7757,0.9212 0,0.4687 0.396,0.8485 1.1878,1.1393 1.697,0.6142 2.9414,1.5434 3.7332,2.7878 0.7919,1.2444 1.3576,3.1514 1.697,5.721 0.1454,1.0667 0.3555,1.7616 0.6302,2.0848 0.2748,0.3071 0.9131,0.606 1.9151,0.8971 0.3071,0.097 0.5657,0.307 0.7757,0.63 0.2101,0.307 0.3152,0.655 0.3152,1.043 0,0.5 -0.1939,1.01 -0.5818,1.527 -0.3879,0.501 -0.8889,0.897 -1.503,1.188 -1.3575,0.63 -3.216,0.945 -5.5755,0.945 -3.1514,0 -5.4059,-0.832 -6.7634,-2.497 -0.6141,-0.743 -1.1394,-1.681 -1.5757,-2.812 -0.4202,-1.1312 -0.9212,-2.8927 -1.503,-5.2846 -0.3717,-1.5353 -0.8485,-2.6181 -1.4303,-3.2483 -0.5656,-0.6303 -1.3817,-0.9697 -2.4484,-1.0182 z m -1.406,-12.3632 -0.2666,5.6483 c 0,0.0485 0,0.1212 0,0.2182 0,0.5818 0.0808,0.9696 0.2424,1.1636 0.1778,0.1939 0.5252,0.2909 1.0424,0.2909 1.4222,0 2.4565,-0.3636 3.1029,-1.0909 0.6464,-0.7434 0.9697,-1.9232 0.9697,-3.5393 0,-3.119 -1.1071,-4.6786 -3.3211,-4.6786 -0.6303,0 -1.0747,0.1455 -1.3333,0.4364 -0.2586,0.2909 -0.404,0.808 -0.4364,1.5514 z"
         opacity="1"
         fill="#000000"
         id="path882" />
      <path
         d="m 128.63,83.4396 v 5.915 c 0,3.5716 -0.266,6.1008 -0.8,7.5876 -1.147,3.1348 -3.668,5.4058 -7.563,6.8118 -2.36,0.873 -5.026,1.309 -8,1.309 -5.187,0 -9.341,-1.236 -12.4599,-3.709 -1.5191,-1.212 -2.5696,-2.618 -3.1514,-4.2179 -0.5818,-1.5999 -0.8727,-3.911 -0.8727,-6.9331 0,-1.1797 0.0404,-3.1191 0.1212,-5.8179 0.0485,-1.907 0.0728,-3.1676 0.0728,-3.7817 0,-1.3414 -0.1051,-2.2707 -0.3152,-2.7878 -0.1939,-0.5172 -0.6303,-1.002 -1.309,-1.4545 -1.0667,-0.6949 -1.6,-1.4706 -1.6,-2.3272 0,-0.6303 0.2667,-1.1878 0.8,-1.6727 0.5495,-0.4848 1.2686,-0.8161 2.1575,-0.9939 1.7777,-0.3555 3.8786,-0.5333 6.3027,-0.5333 2.667,0 4.881,0.202 6.642,0.6061 1.73,0.3878 2.594,1.2686 2.594,2.6423 0,0.6788 -0.25,1.2202 -0.751,1.6242 -0.113,0.0969 -0.598,0.3474 -1.455,0.7515 -0.517,0.2262 -0.873,0.6383 -1.066,1.2363 -0.178,0.5979 -0.267,1.5838 -0.267,2.9575 0,1.406 -0.065,4.4442 -0.194,9.1148 -0.081,2.7797 0.671,4.8968 2.254,6.3513 1.293,1.1959 2.958,1.7938 4.994,1.7938 1.293,0 2.465,-0.2343 3.515,-0.703 1.051,-0.4848 1.851,-1.1393 2.4,-1.9635 0.436,-0.6303 0.735,-1.3333 0.897,-2.109 0.162,-0.7758 0.242,-1.8343 0.242,-3.1757 v -5.3331 c -0.08,-4.0888 -0.202,-6.4806 -0.363,-7.1755 -0.146,-0.7111 -0.663,-1.2687 -1.552,-1.6727 -0.84,-0.3717 -1.414,-0.7111 -1.721,-1.0181 -0.307,-0.3071 -0.46,-0.6869 -0.46,-1.1394 0,-0.9697 0.573,-1.6727 1.721,-2.109 1.163,-0.4525 3.022,-0.6788 5.575,-0.6788 2.505,0 4.315,0.2182 5.43,0.6546 1.132,0.4363 1.697,1.1312 1.697,2.0847 0,0.4687 -0.097,0.8162 -0.291,1.0424 -0.193,0.2263 -0.703,0.5737 -1.527,1.0424 -0.856,0.4848 -1.349,1.0101 -1.479,1.5757 -0.113,0.5495 -0.185,2.6181 -0.218,6.2058 z"
         opacity="1"
         fill="#000000"
         id="path884" />
      <path
         d="m 144.409,71.3189 h 12.775 c 1.374,-0.0485 2.626,-0.2344 3.758,-0.5576 0.484,-0.1293 0.913,-0.1939 1.284,-0.1939 1.309,0 2.578,0.9696 3.806,2.909 1.245,1.9393 1.867,3.9352 1.867,5.9876 0,1.406 -0.428,2.4323 -1.285,3.0787 -0.646,0.4848 -1.422,0.7272 -2.327,0.7272 -0.857,0 -1.6,-0.2343 -2.23,-0.703 -0.631,-0.4848 -1.253,-1.2767 -1.867,-2.3756 -0.533,-1.002 -0.953,-1.6565 -1.26,-1.9636 -0.307,-0.3071 -0.679,-0.4606 -1.116,-0.4606 -0.597,0 -1.026,0.2505 -1.284,0.7515 -0.259,0.501 -0.388,1.3252 -0.388,2.4726 v 13.5753 c 0,1.3898 0.145,2.3999 0.436,3.0302 0.291,0.6303 0.841,1.1151 1.649,1.4545 0.872,0.3717 1.462,0.7272 1.769,1.0668 0.323,0.323 0.485,0.776 0.485,1.357 0,1.164 -0.792,2.029 -2.376,2.594 -1.567,0.566 -3.983,0.849 -7.248,0.849 -4.008,0 -6.981,-0.332 -8.921,-0.994 -1.632,-0.55 -2.448,-1.439 -2.448,-2.667 0,-0.662 0.291,-1.18 0.873,-1.5513 0.145,-0.0808 0.719,-0.2747 1.721,-0.5818 0.614,-0.1778 1.034,-0.5171 1.26,-1.0181 0.243,-0.501 0.437,-1.4626 0.582,-2.8848 0.129,-1.2605 0.251,-3.2968 0.364,-6.1089 0.113,-2.8281 0.169,-5.2765 0.169,-7.3451 0,-1.4545 -0.113,-2.4888 -0.339,-3.103 -0.226,-0.6141 -0.598,-0.9211 -1.115,-0.9211 -0.63,0 -1.244,0.4525 -1.842,1.3575 -1.083,1.6484 -1.972,2.7393 -2.667,3.2726 -0.824,0.6303 -1.624,0.9454 -2.4,0.9454 -0.873,0 -1.592,-0.3232 -2.157,-0.9696 -0.566,-0.6626 -0.849,-1.503 -0.849,-2.5212 0,-1.0019 0.226,-2.1009 0.679,-3.2968 0.452,-1.2121 1.058,-2.3272 1.818,-3.3453 1.228,-1.6485 2.44,-2.4727 3.636,-2.4727 0.323,0 0.695,0.0485 1.115,0.1455 0.873,0.1777 1.584,0.2989 2.134,0.3636 0.565,0.0646 1.212,0.097 1.939,0.097 z"
         opacity="1"
         fill="#000000"
         id="path886" />
      <path
         d="m 181.238,71.3189 h 12.776 c 1.373,-0.0485 2.626,-0.2344 3.757,-0.5576 0.485,-0.1293 0.913,-0.1939 1.285,-0.1939 1.309,0 2.578,0.9696 3.806,2.909 1.244,1.9393 1.866,3.9352 1.866,5.9876 0,1.406 -0.428,2.4323 -1.284,3.0787 -0.647,0.4848 -1.423,0.7272 -2.328,0.7272 -0.856,0 -1.6,-0.2343 -2.23,-0.703 -0.63,-0.4848 -1.252,-1.2767 -1.866,-2.3756 -0.534,-1.002 -0.954,-1.6565 -1.261,-1.9636 -0.307,-0.3071 -0.679,-0.4606 -1.115,-0.4606 -0.598,0 -1.026,0.2505 -1.285,0.7515 -0.258,0.501 -0.388,1.3252 -0.388,2.4726 v 13.5753 c 0,1.3898 0.146,2.3999 0.437,3.0302 0.29,0.6303 0.84,1.1151 1.648,1.4545 0.873,0.3717 1.463,0.7272 1.77,1.0668 0.323,0.323 0.484,0.776 0.484,1.357 0,1.164 -0.791,2.029 -2.375,2.594 -1.568,0.566 -3.984,0.849 -7.248,0.849 -4.008,0 -6.982,-0.332 -8.921,-0.994 -1.633,-0.55 -2.449,-1.439 -2.449,-2.667 0,-0.662 0.291,-1.18 0.873,-1.5513 0.145,-0.0808 0.719,-0.2747 1.721,-0.5818 0.614,-0.1778 1.034,-0.5171 1.261,-1.0181 0.242,-0.501 0.436,-1.4626 0.581,-2.8848 0.13,-1.2605 0.251,-3.2968 0.364,-6.1089 0.113,-2.8281 0.17,-5.2765 0.17,-7.3451 0,-1.4545 -0.113,-2.4888 -0.34,-3.103 -0.226,-0.6141 -0.598,-0.9211 -1.115,-0.9211 -0.63,0 -1.244,0.4525 -1.842,1.3575 -1.083,1.6484 -1.972,2.7393 -2.667,3.2726 -0.824,0.6303 -1.624,0.9454 -2.4,0.9454 -0.872,0 -1.591,-0.3232 -2.157,-0.9696 -0.566,-0.6626 -0.848,-1.503 -0.848,-2.5212 0,-1.0019 0.226,-2.1009 0.678,-3.2968 0.453,-1.2121 1.059,-2.3272 1.818,-3.3453 1.229,-1.6485 2.441,-2.4727 3.637,-2.4727 0.323,0 0.695,0.0485 1.115,0.1455 0.872,0.1777 1.584,0.2989 2.133,0.3636 0.566,0.0646 1.212,0.097 1.939,0.097 z"
         opacity="1"
         fill="#000000"
         id="path888" />
      <path
         d="m 217.563,70.8098 c 1.842,0 3.579,0.1616 5.212,0.4848 2.198,0.4364 3.297,1.3656 3.297,2.7878 0,0.4687 -0.114,0.8242 -0.34,1.0666 -0.21,0.2263 -0.759,0.5657 -1.648,1.0182 -0.744,0.3717 -1.237,1.1878 -1.479,2.4484 -0.226,1.2605 -0.339,3.717 -0.339,7.3694 0,6.1735 0.153,9.9956 0.46,11.4662 0.113,0.4687 0.283,0.8323 0.509,1.0909 0.243,0.2424 0.655,0.5091 1.237,0.8 1.066,0.4848 1.6,1.1879 1.6,2.1089 0,1.293 -0.986,2.182 -2.958,2.667 -2.133,0.517 -4.743,0.775 -7.83,0.775 -5.268,0 -7.903,-1.002 -7.903,-3.006 0,-0.727 0.518,-1.406 1.552,-2.0358 0.792,-0.4849 1.26,-1.1475 1.406,-1.9879 0.307,-1.8423 0.46,-5.7533 0.46,-11.7329 0,-4.1372 -0.21,-6.7876 -0.63,-7.9512 -0.226,-0.6626 -0.767,-1.2605 -1.624,-1.7939 -0.663,-0.4363 -1.107,-0.7999 -1.333,-1.0908 -0.227,-0.2909 -0.34,-0.6626 -0.34,-1.1151 0,-0.695 0.332,-1.2444 0.994,-1.6485 0.679,-0.4201 1.867,-0.7919 3.564,-1.1151 2.02,-0.404 4.064,-0.606 6.133,-0.606 z"
         opacity="1"
         fill="#000000"
         id="path890" />
    </g>
  </g>
</svg>
